<svg width="26" height="26" viewBox="0 0 26 26" fill="none" xmlns="http://www.w3.org/2000/svg">
<path d="M10.4997 22.4499H5.24966C4.08986 22.4499 3.14966 21.5097 3.14966 20.3499V13.3117C3.14966 12.7744 3.35562 12.2575 3.72516 11.8674L11.0752 4.10907C11.9035 3.23476 13.2959 3.23476 14.1242 4.10907L21.4742 11.8674C21.8437 12.2575 22.0497 12.7744 22.0497 13.3117V20.3499C22.0497 21.5097 21.1095 22.4499 19.9497 22.4499H14.6997M10.4997 22.4499V16.6749C10.4997 16.3849 10.7347 16.1499 11.0247 16.1499H14.1747C14.4646 16.1499 14.6997 16.3849 14.6997 16.6749V22.4499M10.4997 22.4499H14.6997" stroke="#5D6679" stroke-width="1.575"/>
</svg>
