<svg width="26" height="26" viewBox="0 0 26 26" fill="none" xmlns="http://www.w3.org/2000/svg">
<path d="M23.1103 17.1414L23.1112 17.1445L23.1112 17.1445C23.2859 17.8006 22.909 18.513 22.2439 18.6415L16.0098 20.2845C16.0873 21.5093 15.2971 22.6529 14.0701 22.9722C12.8435 23.3154 11.5687 22.7137 11.0351 21.6211L10.0067 21.9015L10.0056 21.9018C9.78767 21.9562 9.5612 21.8476 9.50415 21.6207C9.5041 21.6206 9.50406 21.6204 9.50402 21.6202L5.30825 6.17097L3.31426 6.66956C2.80063 6.79799 2.237 6.49047 2.08312 5.95174L23.1103 17.1414ZM23.1103 17.1414L23.1103 17.1412L22.6482 15.439C22.6481 15.4388 22.6481 15.4386 22.6481 15.4385C22.591 15.2117 22.3645 15.103 22.1466 15.1574L22.1461 15.1575L20.4201 15.6068L18.4872 8.43114C18.4872 8.43097 18.4871 8.43081 18.4871 8.43065C18.43 8.20382 18.2036 8.09516 17.9857 8.14955L17.9857 8.14954L17.9848 8.14977L14.2151 9.15821L13.1828 5.34086C13.1827 5.34069 13.1827 5.34051 13.1826 5.34034C13.1256 5.11353 12.8991 5.00489 12.6812 5.05926L12.6806 5.05942L7.81592 6.3358L7.19705 4.02682C7.19701 4.02668 7.19698 4.02653 7.19694 4.02639C7.14061 3.80225 6.9161 3.68975 6.71899 3.74543L23.1103 17.1414ZM5.97988 5.60749L5.97996 5.60747L5.97902 5.60465C5.92459 5.44153 5.76133 5.3011 5.58857 5.3011H5.51559V5.29955L5.5031 5.30261L3.11854 5.88664L3.11853 5.8866L3.11661 5.88715C3.045 5.90759 2.9895 5.89535 2.94885 5.86864C2.907 5.84112 2.87643 5.79521 2.86244 5.7418C2.83428 5.63431 2.87559 5.51591 2.99926 5.47712L6.5248 4.58978L10.3556 18.7007C10.3557 18.7009 10.3557 18.701 10.3557 18.7012C10.4128 18.928 10.6393 19.0366 10.8571 18.9823L10.8576 18.9821L11.3472 18.8552C10.8726 19.4277 10.6857 20.1854 10.7853 20.8868L10.1762 21.0339L5.97988 5.60749ZM11.6491 21.057L11.6491 21.0569C11.3415 20.0634 11.909 19.0473 12.9019 18.7872L12.9024 18.7871C13.9434 18.5032 14.9599 19.1898 15.1487 20.1338L15.1489 20.1347C15.3612 21.102 14.7487 21.9775 13.8477 22.2385C12.901 22.4988 11.9325 21.978 11.6491 21.057ZM22.0238 17.9072L15.8165 19.5495C15.5553 18.8795 14.993 18.3364 14.3136 18.0849C14.9684 17.9112 15.6694 17.7256 16.3918 17.5343C18.2521 17.0416 20.2545 16.5113 21.9762 16.0511L22.3276 17.363L22.3276 17.3632C22.3933 17.6041 22.2625 17.8419 22.0242 17.9071L22.0238 17.9072ZM11.0274 18.1128L9.18135 11.328L17.8153 9.04327L19.6614 15.8281L11.0274 18.1128ZM8.03776 7.11844L12.5107 5.92879L13.4324 9.35559L8.95929 10.5452L8.03776 7.11844Z" fill="#5D6679" stroke="#5D6679" stroke-width="0.105"/>
</svg>
