<svg width="26" height="26" viewBox="0 0 26 26" fill="none" xmlns="http://www.w3.org/2000/svg">
<path d="M21.2098 12.893V12.8939C21.2738 12.9666 21.3091 13.0604 21.3089 13.1581M21.2098 12.893L16.5481 18.1539L21.1945 13.4379C21.2676 13.3638 21.3088 13.2631 21.3089 13.1581M21.2098 12.893L21.1947 12.8777V12.8777L16.5483 8.1617C16.3954 8.00652 16.1474 8.00655 15.9944 8.16167C15.8417 8.31644 15.8419 8.56703 15.9943 8.72173L16.0289 8.6877L15.9943 8.72173L19.975 12.7613H9.04303C8.82636 12.7613 8.65182 12.9396 8.65182 13.1576C8.65182 13.3756 8.82636 13.5539 9.04303 13.5539H19.975L15.9943 17.5939L16.0317 17.6308L15.9943 17.5939C15.8419 17.7487 15.8419 17.999 15.9943 18.1539L15.9943 18.1539C16.0707 18.2314 16.1706 18.2703 16.2712 18.2703C16.3717 18.2703 16.4719 18.2315 16.5481 18.1539L21.2098 12.893ZM21.3089 13.1581L21.2566 13.158H21.3089C21.3089 13.1581 21.3089 13.1581 21.3089 13.1581ZM13.2458 23.0787V23.0752H13.1933H5.34933C5.11885 23.0752 4.92987 22.8838 4.92987 22.6463V3.66894C4.92987 3.43162 5.11904 3.24009 5.34933 3.24009H13.1933C13.41 3.24009 13.5845 3.06179 13.5845 2.84379C13.5845 2.6258 13.41 2.4475 13.1933 2.4475H5.34933C4.68573 2.4475 4.14745 2.99638 4.14745 3.66895V22.6463C4.14745 23.3189 4.68573 23.8678 5.34933 23.8678H13.1933C13.41 23.8678 13.5845 23.6895 13.5845 23.4715C13.5845 23.2714 13.4377 23.1047 13.2458 23.0787Z" fill="#5D6679" stroke="#5D6679" stroke-width="0.105"/>
</svg>
