<svg width="26" height="26" viewBox="0 0 26 26" fill="none" xmlns="http://www.w3.org/2000/svg">
<path d="M7.54608 23.0463L7.54606 23.0464L7.54779 23.0481C7.57991 23.0802 7.6162 23.1085 7.66043 23.1281C7.70511 23.148 7.75244 23.1566 7.8036 23.1566H22.8404C22.942 23.1566 23.0349 23.1223 23.1026 23.0546C23.1704 22.9869 23.2047 22.894 23.2047 22.7923L23.2045 7.75547C23.2045 7.62132 23.1372 7.4993 23.0148 7.45261L16.0451 3.32233C16.0176 3.28552 15.981 3.26424 15.9437 3.25363C15.9065 3.24302 15.8674 3.2431 15.8443 3.24314L15.8403 3.24314H2.35906C2.25746 3.24314 2.16459 3.27745 2.09685 3.34515C2.0291 3.41287 1.99473 3.50575 1.99473 3.60747V17.0887C1.99473 17.1398 2.00335 17.1872 2.02318 17.2318C2.04262 17.2756 2.07053 17.3117 2.10233 17.3436C2.10264 17.3439 2.10294 17.3443 2.10325 17.3446L7.54608 23.0463ZM22.4761 22.4279H8.16777V8.11966H13.1429V11.9035C13.1429 12.0051 13.1772 12.098 13.2449 12.1657C13.3126 12.2334 13.4055 12.2678 13.5072 12.2678H16.8776C16.9792 12.2678 17.072 12.2335 17.1398 12.1658C17.2075 12.0981 17.2419 12.0052 17.2419 11.9035L17.2417 8.11966H22.4761L22.4761 22.4279ZM13.8714 11.5392V8.11975H16.5133V11.5392H13.8714ZM12.117 3.97157H15.7339L21.4983 7.39105H17.2463L12.117 3.97157ZM13.6166 7.39123L8.48726 3.97173L10.8051 3.97157L15.9344 7.39108L13.6166 7.39123ZM7.9168 7.39123L3.44692 3.97157L7.17539 3.97157L12.3048 7.39107L7.9168 7.39123ZM2.7235 16.9428V4.33811L7.43935 7.93701V21.8821L2.7235 16.9428Z" fill="#5D6679" stroke="#5D6679" stroke-width="0.21"/>
</svg>
