<svg width="26" height="26" viewBox="0 0 26 26" fill="none" xmlns="http://www.w3.org/2000/svg">
<path d="M17.2665 22.1332V13.644C17.2665 13.3257 17.5371 13.0678 17.8498 13.0678C18.1719 13.0678 18.4331 13.3193 18.4331 13.644V22.1332H19.6085C20.8832 22.1332 21.9332 21.0863 21.9332 19.8086V5.79115C21.9332 4.51646 20.8863 3.46647 19.6085 3.46647H5.59111C4.31642 3.46647 3.26642 4.51339 3.26642 5.79115V19.8086C3.26642 21.0832 4.31334 22.1332 5.59111 22.1332H6.7665V16.5698C6.7665 16.2414 7.03705 15.9751 7.34981 15.9751C7.67192 15.9751 7.93311 16.2338 7.93311 16.5698V22.1332H10.2665V10.7397C10.2665 10.4199 10.537 10.1608 10.8498 10.1608C11.172 10.1608 11.4332 10.4104 11.4332 10.7397V22.1332H13.7664V6.38035C13.7664 6.05984 14.0371 5.79996 14.3499 5.79996C14.672 5.79996 14.9332 6.06012 14.9332 6.38035V22.1332H17.2665ZM2.09973 5.79123C2.09973 3.86307 3.6781 2.29993 5.59103 2.29993H19.6084C21.5366 2.29993 23.0997 3.87829 23.0997 5.79123V19.8086C23.0997 21.7368 21.5214 23.2999 19.6084 23.2999H5.59103C3.66287 23.2999 2.09973 21.7216 2.09973 19.8086V5.79123Z" fill="#5D6679"/>
</svg>
