<svg width="26" height="26" viewBox="0 0 26 26" fill="none" xmlns="http://www.w3.org/2000/svg">
<g clip-path="url(#clip0_71_239)">
<path d="M12.6 15.225C14.0497 15.225 15.225 14.0497 15.225 12.6C15.225 11.1502 14.0497 9.97498 12.6 9.97498C11.1502 9.97498 9.97498 11.1502 9.97498 12.6C9.97498 14.0497 11.1502 15.225 12.6 15.225Z" stroke="#5D6679" stroke-width="1.26" stroke-linecap="round" stroke-linejoin="round"/>
<path d="M19.075 15.225C18.9585 15.4889 18.9238 15.7816 18.9752 16.0655C19.0267 16.3493 19.162 16.6113 19.3637 16.8175L19.4162 16.87C19.5789 17.0325 19.708 17.2255 19.7961 17.438C19.8841 17.6504 19.9295 17.8781 19.9295 18.1081C19.9295 18.3381 19.8841 18.5658 19.7961 18.7782C19.708 18.9907 19.5789 19.1837 19.4162 19.3462C19.2537 19.5089 19.0607 19.638 18.8482 19.7261C18.6358 19.8141 18.4081 19.8595 18.1781 19.8595C17.9481 19.8595 17.7204 19.8141 17.508 19.7261C17.2955 19.638 17.1025 19.5089 16.94 19.3462L16.8875 19.2937C16.6813 19.092 16.4193 18.9567 16.1355 18.9052C15.8516 18.8538 15.5589 18.8885 15.295 19.005C15.0362 19.1159 14.8155 19.3001 14.66 19.5348C14.5045 19.7696 14.4211 20.0447 14.42 20.3262V20.475C14.42 20.9391 14.2356 21.3842 13.9074 21.7124C13.5792 22.0406 13.1341 22.225 12.67 22.225C12.2058 22.225 11.7607 22.0406 11.4325 21.7124C11.1043 21.3842 10.92 20.9391 10.92 20.475V20.3962C10.9132 20.1066 10.8195 19.8257 10.6509 19.5901C10.4824 19.3545 10.2469 19.175 9.97498 19.075C9.71106 18.9585 9.41831 18.9238 9.13446 18.9752C8.85061 19.0267 8.58869 19.162 8.38248 19.3637L8.32998 19.4162C8.16745 19.5789 7.97444 19.708 7.762 19.7961C7.54955 19.8841 7.32183 19.9295 7.09185 19.9295C6.86187 19.9295 6.63415 19.8841 6.4217 19.7961C6.20926 19.708 6.01625 19.5789 5.85373 19.4162C5.69102 19.2537 5.56194 19.0607 5.47387 18.8482C5.3858 18.6358 5.34047 18.4081 5.34047 18.1781C5.34047 17.9481 5.3858 17.7204 5.47387 17.508C5.56194 17.2955 5.69102 17.1025 5.85373 16.94L5.90623 16.8875C6.10795 16.6813 6.24326 16.4193 6.29473 16.1355C6.3462 15.8516 6.31145 15.5589 6.19498 15.295C6.08406 15.0362 5.89989 14.8155 5.66513 14.66C5.43038 14.5045 5.15529 14.4211 4.87373 14.42H4.72498C4.26085 14.42 3.81573 14.2356 3.48754 13.9074C3.15935 13.5792 2.97498 13.1341 2.97498 12.67C2.97498 12.2058 3.15935 11.7607 3.48754 11.4325C3.81573 11.1043 4.26085 10.92 4.72498 10.92H4.80373C5.09335 10.9132 5.37423 10.8195 5.60986 10.6509C5.84549 10.4824 6.02498 10.2469 6.12498 9.97498C6.24145 9.71106 6.2762 9.41831 6.22473 9.13446C6.17326 8.85061 6.03795 8.58869 5.83623 8.38248L5.78373 8.32998C5.62102 8.16745 5.49194 7.97444 5.40387 7.762C5.3158 7.54955 5.27047 7.32183 5.27047 7.09185C5.27047 6.86187 5.3158 6.63415 5.40387 6.4217C5.49194 6.20926 5.62102 6.01625 5.78373 5.85373C5.94625 5.69102 6.13926 5.56194 6.3517 5.47387C6.56415 5.3858 6.79187 5.34047 7.02185 5.34047C7.25183 5.34047 7.47955 5.3858 7.692 5.47387C7.90444 5.56194 8.09745 5.69102 8.25998 5.85373L8.31248 5.90623C8.51869 6.10795 8.78061 6.24326 9.06446 6.29473C9.34831 6.3462 9.64106 6.31145 9.90498 6.19498H9.97498C10.2338 6.08406 10.4545 5.89989 10.61 5.66513C10.7654 5.43038 10.8489 5.15529 10.85 4.87373V4.72498C10.85 4.26085 11.0343 3.81573 11.3625 3.48754C11.6907 3.15935 12.1358 2.97498 12.6 2.97498C13.0641 2.97498 13.5092 3.15935 13.8374 3.48754C14.1656 3.81573 14.35 4.26085 14.35 4.72498V4.80373C14.3511 5.08529 14.4345 5.36038 14.59 5.59513C14.7455 5.82989 14.9662 6.01406 15.225 6.12498C15.4889 6.24145 15.7816 6.2762 16.0655 6.22473C16.3493 6.17326 16.6113 6.03795 16.8175 5.83623L16.87 5.78373C17.0325 5.62102 17.2255 5.49194 17.438 5.40387C17.6504 5.3158 17.8781 5.27047 18.1081 5.27047C18.3381 5.27047 18.5658 5.3158 18.7782 5.40387C18.9907 5.49194 19.1837 5.62102 19.3462 5.78373C19.5089 5.94625 19.638 6.13926 19.7261 6.3517C19.8141 6.56415 19.8595 6.79187 19.8595 7.02185C19.8595 7.25183 19.8141 7.47955 19.7261 7.692C19.638 7.90444 19.5089 8.09745 19.3462 8.25998L19.2937 8.31248C19.092 8.51869 18.9567 8.78061 18.9052 9.06446C18.8538 9.34831 18.8885 9.64106 19.005 9.90498V9.97498C19.1159 10.2338 19.3001 10.4545 19.5348 10.61C19.7696 10.7654 20.0447 10.8489 20.3262 10.85H20.475C20.9391 10.85 21.3842 11.0343 21.7124 11.3625C22.0406 11.6907 22.225 12.1358 22.225 12.6C22.225 13.0641 22.0406 13.5092 21.7124 13.8374C21.3842 14.1656 20.9391 14.35 20.475 14.35H20.3962C20.1147 14.3511 19.8396 14.4345 19.6048 14.59C19.3701 14.7455 19.1859 14.9662 19.075 15.225Z" stroke="#5D6679" stroke-width="1.26" stroke-linecap="round" stroke-linejoin="round"/>
</g>
<defs>
<clipPath id="clip0_71_239">
<rect width="21" height="21" fill="white" transform="translate(2.09998 2.10004)"/>
</clipPath>
</defs>
</svg>
